PathFileType	4	(X/Y/Z)	/Users/itak/Documents/Research/Walk-IL/dataset/trc/00154_00007.trc
DataRate	CameraRate	NumFrames	NumMarkers	Units	OrigDataRate	OrigDataStartFrame	OrigNumFrames
100.000000	100.000000	4	53	mm	100.000000	0	504
Frame#	Time	RPSI			LPSI			L3			STRN			T10			C7			CLAV			RBAK			LBAK			LSHO			LUPA			LAEL			LAOL			LWTS			LWPS			LFRA			LIFD			LHPS			LHTS			RSHO			RUPA			RAEL			RAOL			RWTS			RWPS			RFRA			RIFD			RHTS			RHPS			RBHD			LFHD			RFHD			LBHD			LHIP			RHIP			RASI			LASI			LKNE			LTHI			LANK			LTIP			LTOE			LMT1			LMT5			LHEE			RKNE			RTHI			RANK			RTIP			RTOE			RMT1			RMT5			RHEE			
		X1	Y1	Z1	X2	Y2	Z2	X3	Y3	Z3	X4	Y4	Z4	X5	Y5	Z5	X6	Y6	Z6	X7	Y7	Z7	X8	Y8	Z8	X9	Y9	Z9	X10	Y10	Z10	X11	Y11	Z11	X12	Y12	Z12	X13	Y13	Z13	X14	Y14	Z14	X15	Y15	Z15	X16	Y16	Z16	X17	Y17	Z17	X18	Y18	Z18	X19	Y19	Z19	X20	Y20	Z20	X21	Y21	Z21	X22	Y22	Z22	X23	Y23	Z23	X24	Y24	Z24	X25	Y25	Z25	X26	Y26	Z26	X27	Y27	Z27	X28	Y28	Z28	X29	Y29	Z29	X30	Y30	Z30	X31	Y31	Z31	X32	Y32	Z32	X33	Y33	Z33	X34	Y34	Z34	X35	Y35	Z35	X36	Y36	Z36	X37	Y37	Z37	X38	Y38	Z38	X39	Y39	Z39	X40	Y40	Z40	X41	Y41	Z41	X42	Y42	Z42	X43	Y43	Z43	X44	Y44	Z44	X45	Y45	Z45	X46	Y46	Z46	X47	Y47	Z47	X48	Y48	Z48	X49	Y49	Z49	X50	Y50	Z50	X51	Y51	Z51	X52	Y52	Z52	X53	Y53	Z53	

1	0	-1344.9892578125	1125.338134765625	-516.373291015625	-1343.735595703125	1125.896118164062	-650.46240234375	-1353.302978515625	1155.706665039062	-585.7637939453125	-1143.439575195312	1360.290649414062	-588.0462036132812	-1395.56298828125	1304.345947265625	-587.4867553710938	-1368.293090820312	1597.962768554688	-602.3385620117188	-1184.897216796875	1493.518188476562	-593.983642578125	-1418.83056640625	1413.619018554688	-513.4642333984375	-1375.457641601562	1576.330444335938	-704.8323364257812	-1288.765258789062	1562.28173828125	-773.0977783203125	-1307.43994140625	1430.10498046875	-842.0465698242188	-1289.54052734375	1209.69140625	-861.792236328125	-1357.98828125	1197.187255859375	-808.0665893554688	-1181.421020507812	958.6364135742188	-805.584228515625	-1259.698364257812	929.1453247070312	-837.347412109375	-1268.301391601562	1093.9541015625	-862.26904296875	-1162.159912109375	766.1836547851562	-777.1079711914062	-1226.505981445312	854.7844848632812	-832.5994262695312	-1162.163452148438	870.7706298828125	-812.0403442382812	-1313.543823242188	1581.852783203125	-421.3386535644531	-1329.235473632812	1508.541625976562	-357.5133972167969	-1330.174194335938	1212.099609375	-335.6690673828125	-1342.720581054688	1212.492553710938	-431.7654113769531	-1180.845581054688	974.4447021484375	-364.5240173339844	-1251.623168945312	954.2451782226562	-326.7193603515625	-1303.459228515625	1139.496704101562	-322.3838806152344	-1146.452758789062	782.8604125976562	-385.699951171875	-1145.671752929688	868.9866943359375	-362.0110778808594	-1210.555053710938	856.0645141601562	-327.1026611328125	-1337.925170898438	1763.976196289062	-522.112548828125	-1189.021362304688	1849.547119140625	-660.65087890625	-1183.693237304688	1851.394897460938	-531.1403198242188	-1351.582885742188	1764.781860351562	-656.53857421875	-1251.912475585938	1036.655883789062	-757.3624877929688	-1218.796142578125	1031.676879882812	-398.8158874511719	-1137.542236328125	1104.2646484375	-450.9517211914062	-1145.570922851562	1102.162963867188	-717.5070190429688	-1230.651733398438	535.480224609375	-723.0630493164062	-1250.129272460938	681.3338623046875	-751.9073486328125	-1350.855834960938	35.12728500366211	-707.6337280273438	-1334.746948242188	289.8314208984375	-744.3098754882812	-1118.2177734375	35.93420791625977	-650.7178955078125	-1200.16552734375	41.63591384887695	-618.5901489257812	-1225.32861328125	32.49653244018555	-734.7135620117188	-1418.738647460938	36.01513290405273	-645.2762451171875	-1235.873779296875	537.1929321289062	-438.8363952636719	-1204.134521484375	816.388916015625	-408.4398498535156	-1344.510864257812	27.63397407531738	-463.2864379882812	-1265.158447265625	404.521240234375	-428.9331970214844	-1115.342041015625	41.33333206176758	-521.927490234375	-1176.677124023438	29.63997459411621	-563.769287109375	-1209.755859375	38.62608337402344	-447.413818359375	-1403.677734375	29.23558807373047	-510.0382385253906	
2	0.01	-1344.900634765625	1125.344604492188	-516.4314575195312	-1343.622192382812	1125.886474609375	-650.5029907226562	-1353.2041015625	1155.698608398438	-585.808837890625	-1143.488159179688	1360.278930664062	-588.0877075195312	-1395.51123046875	1304.29638671875	-587.5320434570312	-1368.321166992188	1597.884643554688	-602.391357421875	-1184.924560546875	1493.517333984375	-594.051025390625	-1418.80810546875	1413.565551757812	-513.528564453125	-1375.470825195312	1576.271484375	-704.89306640625	-1288.79052734375	1562.24072265625	-773.1829833984375	-1307.404907226562	1430.03955078125	-842.0659790039062	-1289.427124023438	1209.633544921875	-861.80078125	-1357.829833984375	1197.120849609375	-808.0704956054688	-1181.54052734375	958.4055786132812	-805.6806640625	-1259.764038085938	928.7887573242188	-837.3642578125	-1268.254516601562	1093.885498046875	-862.3056640625	-1162.4716796875	765.9833984375	-777.2582397460938	-1226.7529296875	854.6398315429688	-832.7395629882812	-1162.3798828125	870.5444946289062	-812.152099609375	-1313.572265625	1581.838012695312	-421.4114990234375	-1329.256713867188	1508.526489257812	-357.56982421875	-1330.06005859375	1212.099853515625	-335.6809387207031	-1342.543334960938	1212.454467773438	-431.7500610351562	-1180.731201171875	974.4091796875	-364.4347534179688	-1251.609741210938	954.2636108398438	-326.6231994628906	-1303.307983398438	1139.508666992188	-322.3554382324219	-1146.712768554688	782.744140625	-385.5551452636719	-1145.703491210938	868.8953247070312	-361.8942260742188	-1210.4990234375	856.0340576171875	-326.9576416015625	-1337.96826171875	1764.005249023438	-522.1989135742188	-1189.00390625	1849.507080078125	-660.6998291015625	-1183.698364257812	1851.329223632812	-531.2029418945312	-1351.576538085938	1764.81884765625	-656.6654052734375	-1251.823364257812	1036.633666992188	-757.3878173828125	-1218.69580078125	1031.668823242188	-398.8253784179688	-1137.432006835938	1104.274169921875	-450.9350280761719	-1145.416015625	1102.173950195312	-717.5078735351562	-1230.544067382812	535.4358520507812	-723.0284423828125	-1249.9765625	681.3182983398438	-751.8948364257812	-1350.850463867188	35.14006805419922	-707.6287841796875	-1334.659423828125	289.8323364257812	-744.3024291992188	-1118.204467773438	35.92497253417969	-650.70751953125	-1200.161865234375	41.63279342651367	-618.5835571289062	-1225.322509765625	32.49876022338867	-734.7023315429688	-1418.71923828125	36.01049041748047	-645.2610473632812	-1235.934814453125	537.2075805664062	-438.8169250488281	-1204.187866210938	816.3579711914062	-408.3777465820312	-1344.488525390625	27.60520362854004	-463.2763366699219	-1265.2216796875	404.5432739257812	-428.9187622070312	-1115.332275390625	41.30373001098633	-521.9237670898438	-1176.660766601562	29.6495189666748	-563.769287109375	-1209.748657226562	38.62639617919922	-447.4064331054688	-1403.668701171875	29.22701454162598	-510.0346069335938	
3	0.02	-1344.793212890625	1125.352905273438	-516.5010375976562	-1343.476318359375	1125.874145507812	-650.5529174804688	-1353.0693359375	1155.686157226562	-585.8662109375	-1143.523071289062	1360.26953125	-588.1425170898438	-1395.439086914062	1304.228881835938	-587.5877075195312	-1368.353881835938	1597.7861328125	-602.4605712890625	-1184.950805664062	1493.51708984375	-594.1336669921875	-1418.7783203125	1413.497314453125	-513.6109008789062	-1375.484497070312	1576.199829101562	-704.9686279296875	-1288.818359375	1562.188842773438	-773.2884521484375	-1307.35107421875	1429.955322265625	-842.0919799804688	-1289.270385742188	1209.560791015625	-861.8041381835938	-1357.613647460938	1197.039672851562	-808.0663452148438	-1181.695678710938	958.1141967773438	-805.8001708984375	-1259.876953125	928.4044799804688	-837.4073486328125	-1268.1884765625	1093.798217773438	-862.3479614257812	-1162.914916992188	765.7105102539062	-777.4654541015625	-1227.080200195312	854.4522094726562	-832.916748046875	-1162.67822265625	870.2401123046875	-812.3043823242188	-1313.604736328125	1581.820434570312	-421.5000305175781	-1329.279418945312	1508.5078125	-357.6368713378906	-1329.89892578125	1212.100708007812	-335.6927795410156	-1342.302978515625	1212.408813476562	-431.7306213378906	-1180.597900390625	974.3541870117188	-364.3292846679688	-1251.588500976562	954.2826538085938	-326.5046691894531	-1303.114868164062	1139.525146484375	-322.3233032226562	-1147.043090820312	782.5702514648438	-385.3710021972656	-1145.757446289062	868.7634887695312	-361.7634582519531	-1210.459594726562	855.9945678710938	-326.774169921875	-1338.01806640625	1764.042358398438	-522.3121948242188	-1188.980834960938	1849.451782226562	-660.765869140625	-1183.706787109375	1851.250610351562	-531.283203125	-1351.565795898438	1764.865600585938	-656.8330078125	-1251.695190429688	1036.60498046875	-757.4216918945312	-1218.5703125	1031.657958984375	-398.8403930664062	-1137.2861328125	1104.28466796875	-450.9153747558594	-1145.223876953125	1102.187255859375	-717.5125732421875	-1230.41455078125	535.3807983398438	-722.9865112304688	-1249.78564453125	681.2981567382812	-751.8781127929688	-1350.844848632812	35.15754699707031	-707.6218872070312	-1334.560302734375	289.83544921875	-744.2937622070312	-1118.188720703125	35.9138069152832	-650.69580078125	-1200.15673828125	41.62833786010742	-618.5761108398438	-1225.317138671875	32.50166320800781	-734.6903686523438	-1418.700805664062	36.00973510742188	-645.245361328125	-1236.017944335938	537.22412109375	-438.7894897460938	-1204.249267578125	816.3195190429688	-408.3089904785156	-1344.45751953125	27.56969261169434	-463.2646179199219	-1265.303344726562	404.5720825195312	-428.9017639160156	-1115.32177734375	41.27297973632812	-521.9202880859375	-1176.654296875	29.65520286560059	-563.768798828125	-1209.73876953125	38.62499618530273	-447.3957214355469	-1403.658081054688	29.22185707092285	-510.0290222167969	
4	0.03	-1344.671875	1125.362182617188	-516.5773315429688	-1343.303100585938	1125.859130859375	-650.60986328125	-1352.898681640625	1155.669311523438	-585.9326171875	-1143.533813476562	1360.264282226562	-588.209228515625	-1395.346923828125	1304.144165039062	-587.651611328125	-1368.388549804688	1597.671142578125	-602.544921875	-1184.971557617188	1493.517333984375	-594.2269287109375	-1418.7412109375	1413.416870117188	-513.7080078125	-1375.496704101562	1576.119262695312	-705.0560913085938	-1288.844970703125	1562.127685546875	-773.4087524414062	-1307.277587890625	1429.855224609375	-842.1249389648438	-1289.070190429688	1209.47509765625	-861.7994995117188	-1357.342895507812	1196.948364257812	-808.0510864257812	-1181.885620117188	957.7719116210938	-805.9378051757812	-1260.0439453125	928.030517578125	-837.4822387695312	-1268.103515625	1093.695434570312	-862.3919677734375	-1163.492919921875	765.367919921875	-777.7266235351562	-1227.483276367188	854.2274780273438	-833.1242065429688	-1163.05322265625	869.8624877929688	-812.4935913085938	-1313.638671875	1581.801025390625	-421.5993957519531	-1329.300415039062	1508.486083984375	-357.7100524902344	-1329.689331054688	1212.102294921875	-335.7027587890625	-1342.005493164062	1212.359130859375	-431.7091674804688	-1180.456787109375	974.2764282226562	-364.2151794433594	-1251.557739257812	954.299560546875	-326.3699340820312	-1302.887329101562	1139.546020507812	-322.2906799316406	-1147.429321289062	782.3372802734375	-385.1577453613281	-1145.837158203125	868.5872802734375	-361.6305236816406	-1210.447021484375	855.9468994140625	-326.5601501464844	-1338.070068359375	1764.085693359375	-522.4494018554688	-1188.95263671875	1849.38134765625	-660.8485107421875	-1183.719116210938	1851.163940429688	-531.3785400390625	-1351.550415039062	1764.920166015625	-657.0357055664062	-1251.525756835938	1036.570556640625	-757.4634399414062	-1218.42431640625	1031.644165039062	-398.8612365722656	-1137.108032226562	1104.294799804688	-450.89453125	-1145.00390625	1102.201416015625	-717.5225830078125	-1230.271606445312	535.3187866210938	-722.9410400390625	-1249.56689453125	681.274169921875	-751.8587646484375	-1350.840576171875	35.17886352539062	-707.6134643554688	-1334.459838867188	289.841796875	-744.2841186523438	-1118.17236328125	35.90194320678711	-650.6841430664062	-1200.150634765625	41.62265396118164	-618.5684204101562	-1225.312866210938	32.50471115112305	-734.6788330078125	-1418.686401367188	36.01409912109375	-645.2307739257812	-1236.123046875	537.2410278320312	-438.7542419433594	-1204.312377929688	816.2760009765625	-408.2412719726562	-1344.420166015625	27.5310115814209	-463.2520446777344	-1265.401733398438	404.6063232421875	-428.8831481933594	-1115.3115234375	41.2450065612793	-521.9170532226562	-1176.654052734375	29.6589183807373	-563.7679443359375	-1209.726318359375	38.62128448486328	-447.3815307617188	-1403.646484375	29.22170448303223	-510.0214538574219	
